<?xml version="1.0" encoding="UTF-8" standalone="no"?>
<svg
   xmlns:dc="http://purl.org/dc/elements/1.1/"
   xmlns:cc="http://creativecommons.org/ns#"
   xmlns:rdf="http://www.w3.org/1999/02/22-rdf-syntax-ns#"
   xmlns:svg="http://www.w3.org/2000/svg"
   xmlns="http://www.w3.org/2000/svg"
   xmlns:sodipodi="http://sodipodi.sourceforge.net/DTD/sodipodi-0.dtd"
   xmlns:inkscape="http://www.inkscape.org/namespaces/inkscape"
   id="Capa_1"
   enable-background="new 0 0 512.018 512.018"
   height="512"
   viewBox="0 0 512.018 512.018"
   width="512"
   version="1.1"
   sodipodi:docname="analytic.svg"
   inkscape:version="1.0.2 (e86c870879, 2021-01-15)">
  <metadata
     id="metadata15">
    <rdf:RDF>
      <cc:Work
         rdf:about="">
        <dc:format>image/svg+xml</dc:format>
        <dc:type
           rdf:resource="http://purl.org/dc/dcmitype/StillImage" />
      </cc:Work>
    </rdf:RDF>
  </metadata>
  <defs
     id="defs13" />
  <sodipodi:namedview
     pagecolor="#ffffff"
     bordercolor="#666666"
     borderopacity="1"
     objecttolerance="10"
     gridtolerance="10"
     guidetolerance="10"
     inkscape:pageopacity="0"
     inkscape:pageshadow="2"
     inkscape:window-width="1920"
     inkscape:window-height="1017"
     id="namedview11"
     showgrid="false"
     inkscape:zoom="1.6601562"
     inkscape:cx="256"
     inkscape:cy="256"
     inkscape:window-x="-8"
     inkscape:window-y="-8"
     inkscape:window-maximized="1"
     inkscape:current-layer="Capa_1" />
  <g
     id="g8"
     style="fill:#ffffff;fill-opacity:1">
    <path
       d="m290.757 151.009h-55.816l-37.729 101.636 38.047-.634c10.402-.181 17.816 10.06 14.432 19.884l-18.015 52.288 95.324-102.174h-41.491c-10.51 0-17.745-10.538-14.021-20.332z"
       id="path2"
       style="fill:#ffffff;fill-opacity:1" />
    <path
       d="m480.673 330.897c0-35.989-19.789-67.58-49.574-84.098 28.979-14.387 48.512-44.389 48.512-78.425 0-52.082-45.219-92.84-97.344-87.104 11.133-40.567-19.322-81.261-61.992-81.261-.198 0-.396-.001-.593-.004-26.732-.374-48.673 21.007-48.673 47.741v73.263h41.5c10.51 0 17.745 10.538 14.021 20.332l-19.269 50.668h54.248c13.093 0 19.893 15.666 10.968 25.232l-101.468 108.759v138.272c0 26.734 21.941 48.115 48.673 47.741.197-.003.395-.004.593-.004 45.081 0 74.75-44.593 60.866-84.958 51.721 1.785 99.532-39.239 99.532-96.154zm-114.025-176.968c-.906-8.234 5.034-15.645 13.269-16.551 21.574-2.374 40.446 14.369 40.446 36.131 0 8.284-6.716 15-15 15s-15-6.716-15-15c0-3.838-3.265-6.739-7.163-6.311-8.242.904-15.645-5.034-16.552-13.269zm8.752 216.981c-8.279-.286-14.759-7.229-14.474-15.509.286-8.28 7.234-14.75 15.509-14.474 5.716.186 11.671-3.568 13.872-8.758 2.447-5.766 1.036-14.117-6.396-18.24-7.245-4.018-9.861-13.147-5.844-20.393 4.017-7.244 13.147-9.862 20.393-5.843 19.987 11.084 28.355 35.242 19.465 56.194-6.981 16.45-24.411 27.647-42.525 27.023z"
       id="path4"
       style="fill:#ffffff;fill-opacity:1" />
    <path
       d="m180.327 381.123 34.026-98.759-38.595.644c-10.576.17-17.977-10.347-14.313-20.218l49-132c2.183-5.879 7.792-9.78 14.063-9.78h16.5v-73.264c0-26.734-21.941-48.115-48.673-47.741-.197.003-.395.004-.593.004-42.67 0-73.125 40.694-61.992 81.261-52.124-5.736-97.344 35.022-97.344 87.104 0 34.036 19.534 64.039 48.512 78.425-29.785 16.518-49.574 48.109-49.574 84.098 0 56.915 47.811 97.939 99.532 96.154-13.884 40.365 15.785 84.958 60.866 84.958.198 0 .395.001.593.004 26.732.374 48.673-21.007 48.673-47.741v-106.116l-35.532 38.085c-10.866 11.65-30.441.237-25.149-15.118zm-48.225-243.745c8.234.907 14.175 8.317 13.269 16.551-.906 8.235-8.309 14.171-16.552 13.269-3.867-.427-7.163 2.444-7.163 6.311 0 8.284-6.716 15-15 15s-15-6.716-15-15c-.001-21.672 18.784-38.514 40.446-36.131zm4.516 233.532c-17.958.62-35.484-10.431-42.524-27.021-8.891-20.952-.522-45.11 19.465-56.194 7.244-4.02 16.373-1.402 20.393 5.843 4.018 7.245 1.401 16.375-5.844 20.393-7.433 4.123-8.844 12.474-6.396 18.24 2.201 5.189 8.156 8.943 13.872 8.758 8.271-.286 15.222 6.194 15.509 14.474.284 8.278-6.195 15.222-14.475 15.507z"
       id="path6"
       style="fill:#ffffff;fill-opacity:1" />
  </g>
</svg>
