<?xml version="1.0" encoding="UTF-8" standalone="no"?>
<svg
   xmlns:dc="http://purl.org/dc/elements/1.1/"
   xmlns:cc="http://creativecommons.org/ns#"
   xmlns:rdf="http://www.w3.org/1999/02/22-rdf-syntax-ns#"
   xmlns:svg="http://www.w3.org/2000/svg"
   xmlns="http://www.w3.org/2000/svg"
   xmlns:sodipodi="http://sodipodi.sourceforge.net/DTD/sodipodi-0.dtd"
   xmlns:inkscape="http://www.inkscape.org/namespaces/inkscape"
   id="Layer_1"
   enable-background="new 0 0 510.992 510.992"
   height="512"
   viewBox="0 0 510.992 510.992"
   width="512"
   version="1.1"
   sodipodi:docname="calendar.svg"
   inkscape:version="1.0.2 (e86c870879, 2021-01-15)">
  <metadata
     id="metadata15">
    <rdf:RDF>
      <cc:Work
         rdf:about="">
        <dc:format>image/svg+xml</dc:format>
        <dc:type
           rdf:resource="http://purl.org/dc/dcmitype/StillImage" />
      </cc:Work>
    </rdf:RDF>
  </metadata>
  <defs
     id="defs13" />
  <sodipodi:namedview
     pagecolor="#ffffff"
     bordercolor="#666666"
     borderopacity="1"
     objecttolerance="10"
     gridtolerance="10"
     guidetolerance="10"
     inkscape:pageopacity="0"
     inkscape:pageshadow="2"
     inkscape:window-width="1920"
     inkscape:window-height="1017"
     id="namedview11"
     showgrid="false"
     inkscape:zoom="1.6601562"
     inkscape:cx="256"
     inkscape:cy="256"
     inkscape:window-x="-8"
     inkscape:window-y="-8"
     inkscape:window-maximized="1"
     inkscape:current-layer="Layer_1" />
  <path
     d="m151.121 129.051c-8.837 0-16-7.163-16-16v-97.051c0-8.837 7.163-16 16-16s16 7.163 16 16v97.051c0 8.837-7.163 16-16 16z"
     id="path2"
     style="fill:#628eff;fill-opacity:1" />
  <path
     d="m359.872 129.051c-8.837 0-16-7.163-16-16v-97.051c0-8.837 7.163-16 16-16s16 7.163 16 16v97.051c0 8.837-7.163 16-16 16z"
     id="path4"
     style="fill:#628eff;fill-opacity:1" />
  <path
     d="m24.263 221.975v220.767c0 37.634 30.617 68.251 68.251 68.251h325.965c37.634 0 68.251-30.617 68.251-68.251v-220.767z"
     id="path6"
     style="fill:#628eff;fill-opacity:1" />
  <path
     d="m486.729 189.975v-73.198c0-37.634-30.617-68.251-68.251-68.251h-10.606v64.525c0 26.468-21.532 48-48 48s-48-21.532-48-48v-64.526h-112.751v64.525c0 26.468-21.532 48-48 48s-48-21.532-48-48v-64.525h-10.607c-37.634 0-68.251 30.617-68.251 68.251v73.198h462.466z"
     id="path8"
     style="fill:#628eff;fill-opacity:1" />
</svg>
