<?xml version="1.0" encoding="UTF-8" standalone="no"?>
<svg
   xmlns:dc="http://purl.org/dc/elements/1.1/"
   xmlns:cc="http://creativecommons.org/ns#"
   xmlns:rdf="http://www.w3.org/1999/02/22-rdf-syntax-ns#"
   xmlns:svg="http://www.w3.org/2000/svg"
   xmlns="http://www.w3.org/2000/svg"
   xmlns:sodipodi="http://sodipodi.sourceforge.net/DTD/sodipodi-0.dtd"
   xmlns:inkscape="http://www.inkscape.org/namespaces/inkscape"
   id="Capa_1"
   enable-background="new 0 0 512 512"
   height="512"
   viewBox="0 0 512 512"
   width="512"
   version="1.1"
   sodipodi:docname="coffee.svg"
   inkscape:version="1.0.2 (e86c870879, 2021-01-15)">
  <metadata
     id="metadata15">
    <rdf:RDF>
      <cc:Work
         rdf:about="">
        <dc:format>image/svg+xml</dc:format>
        <dc:type
           rdf:resource="http://purl.org/dc/dcmitype/StillImage" />
      </cc:Work>
    </rdf:RDF>
  </metadata>
  <defs
     id="defs13" />
  <sodipodi:namedview
     pagecolor="#ffffff"
     bordercolor="#666666"
     borderopacity="1"
     objecttolerance="10"
     gridtolerance="10"
     guidetolerance="10"
     inkscape:pageopacity="0"
     inkscape:pageshadow="2"
     inkscape:window-width="1920"
     inkscape:window-height="1017"
     id="namedview11"
     showgrid="false"
     inkscape:zoom="1.1739077"
     inkscape:cx="-79.098891"
     inkscape:cy="251.68123"
     inkscape:window-x="-8"
     inkscape:window-y="-8"
     inkscape:window-maximized="1"
     inkscape:current-layer="Capa_1" />
  <g
     id="g8"
     style="fill:#ffffff;fill-opacity:1">
    <path
       d="m462.521 294.151c-9.291-11.898-23.277-18.723-38.373-18.723h-45.145v-34.428h-339.856v102.247c0 57.441 28.855 108.261 72.823 138.753h-72.704v30h339.618v-30h-72.704c15.375-10.662 28.9-23.808 39.99-38.857h32.929c38.55 0 72.003-26.12 81.353-63.518l10.927-43.705c3.66-14.646.432-29.869-8.858-41.769zm-20.246 34.493-10.927 43.705c-6.005 24.019-27.49 40.794-52.249 40.794h-15.265c9.736-21.309 15.169-44.979 15.169-69.896v-37.818h45.145c5.794 0 11.161 2.619 14.727 7.186 3.566 4.566 4.804 10.408 3.4 16.029z"
       id="path2"
       style="fill:#ffffff;fill-opacity:1" />
    <path
       d="m209.247 118.286c-27.256 0-49.43 22.174-49.43 49.43v34.427h30v-34.427c0-10.714 8.716-19.43 19.43-19.43h137.709c65.226 0 118.29-53.064 118.29-118.29v-29.996h-30v29.996c0 48.684-39.606 88.29-88.29 88.29z"
       id="path4"
       style="fill:#ffffff;fill-opacity:1" />
    <path
       d="m120.96 172.147c0-48.684 39.606-88.29 88.29-88.29h137.709c27.256 0 49.43-22.175 49.43-49.431v-34.426h-30v34.427c0 10.714-8.716 19.431-19.43 19.431h-137.709c-65.226 0-118.29 53.064-118.29 118.29v29.995h30z"
       id="path6"
       style="fill:#ffffff;fill-opacity:1" />
  </g>
</svg>
