<svg height="512pt" viewBox="0 -77 512 512" width="512pt" xmlns="http://www.w3.org/2000/svg"><path d="m503.46875 25.601562v307.199219c.027344 2.042969-.351562 4.074219-1.109375 5.972657-2.273437 6.007812-7.703125 10.25-14.082031 11.007812-.621094.074219-1.25.101562-1.875.085938h-460.800782c-.628906.015624-1.253906-.011719-1.878906-.085938-6.378906-.757812-11.804687-5-14.078125-11.007812-.761719-1.898438-1.140625-3.929688-1.109375-5.972657v-307.199219c-.027344-2.046874.347656-4.078124 1.109375-5.972656 2.273438-6.007812 7.699219-10.25 14.078125-11.011718.625-.070313 1.25-.097657 1.878906-.082032h460.796876c.628906-.015625 1.253906.011719 1.878906.082032 6.378906.761718 11.804687 5.003906 14.078125 11.011718.761719 1.894532 1.140625 3.925782 1.113281 5.972656zm0 0" fill="#0377bc"/><path d="m477.867188 25.601562v307.199219c.027343 2.039063-.328126 4.0625-1.050782 5.972657-2.019531 5.890624-7.183594 10.148437-13.355468 11.007812-.597657.074219-1.203126.101562-1.808594.085938h-436.90625c-.59375.015624-1.191406-.011719-1.78125-.085938-6.179688-.851562-11.355469-5.109375-13.378906-11.007812-.722657-1.910157-1.078126-3.933594-1.050782-5.972657v-307.199219c-.027344-2.039062.328125-4.066406 1.050782-5.972656 2.019531-5.894531 7.183593-10.152344 13.351562-11.011718.601562-.070313 1.207031-.101563 1.808594-.082032h436.910156c.59375-.015625 1.191406.011719 1.78125.082032 6.171875.859374 11.332031 5.117187 13.355469 11.011718.726562 1.902344 1.09375 3.929688 1.074219 5.972656zm0 0" fill="#02a9f4"/><path d="m503.46875 25.601562c.027344-2.046874-.351562-4.078124-1.109375-5.972656-2.273437-6.007812-7.703125-10.25-14.082031-11.011718-.621094-.070313-1.25-.097657-1.875-.082032h-27.992188l-151.210937 104.277344v-104.28125h-102.398438v104.277344l-151.210937-104.277344h-27.988282c-.628906-.015625-1.253906.015625-1.878906.085938-6.378906.757812-11.804687 5-14.078125 11.007812-.761719 1.898438-1.140625 3.929688-1.109375 5.972656v13.996094l128.167969 88.40625h-128.171875v102.398438h128.085938l-128.085938 88.40625v13.996093c-.027344 2.042969.351562 4.074219 1.109375 5.972657 2.273437 6.007812 7.703125 10.25 14.082031 11.007812.621094.074219 1.25.101562 1.875.085938h27.992188l151.210937-104.277344v104.277344h102.398438v-104.277344l151.210937 104.277344h27.988282c.628906.015624 1.253906-.011719 1.878906-.085938 6.378906-.757812 11.804687-5 14.078125-11.007812.761719-1.898438 1.140625-3.929688 1.109375-5.972657v-13.996093l-128.167969-88.40625h128.171875v-102.398438h-128.085938l128.082032-88.40625v-13.992188zm0 0" fill="#cfd8dc"/><g fill="#c52828"><path d="m502.355469 338.773438c-2.273438 6.007812-7.699219 10.25-14.078125 11.007812l-173.140625-119.382812h30.207031zm0 0"/><path d="m196.863281 128h-30.207031l-157.011719-108.371094c2.273438-6.007812 7.699219-10.25 14.078125-11.011718zm0 0"/><path d="m502.355469 19.628906-157.183594 108.371094h-29.949219l173.054688-119.382812c6.378906.757812 11.804687 5.003906 14.078125 11.011718zm0 0"/><path d="m196.777344 230.398438-173.054688 119.382812c-6.378906-.757812-11.804687-5-14.078125-11.007812l157.183594-108.375zm0 0"/></g><path d="m238.933594 8.53125h34.132812v341.335938h-34.132812zm0 0" fill="#f44335"/><path d="m477.867188 128h25.601562v102.398438h-25.601562zm0 0" fill="#607d8b"/><path d="m8.53125 162.132812h494.933594v34.132813h-494.933594zm0 0" fill="#f44335"/><path d="m477.867188 162.132812h25.601562v34.132813h-25.601562zm0 0" fill="#c52828"/><path d="m486.398438 0h-460.796876c-14.140624 0-25.601562 11.460938-25.601562 25.601562v307.199219c0 14.136719 11.460938 25.597657 25.601562 25.597657h460.796876c14.140624 0 25.601562-11.460938 25.601562-25.597657v-307.199219c0-14.140624-11.460938-25.601562-25.601562-25.601562zm8.535156 25.601562v93.867188h-179.199219v-102.402344h170.664063c4.714843 0 8.535156 3.820313 8.535156 8.535156zm-196.265625-8.535156v110.933594c0 4.714844 3.820312 8.53125 8.53125 8.53125h187.734375v85.335938h-187.734375c-4.710938 0-8.53125 3.820312-8.53125 8.53125v110.933593h-85.332031v-110.933593c0-4.710938-3.824219-8.53125-8.535157-8.53125h-187.734375v-85.332032h187.734375c4.710938 0 8.53125-3.820312 8.53125-8.535156v-110.933594zm-273.066407 0h170.664063v102.402344h-179.199219v-93.867188c0-4.714843 3.820313-8.535156 8.535156-8.535156zm-8.535156 315.734375v-93.867187h179.199219v102.398437h-170.664063c-4.714843 0-8.535156-3.820312-8.535156-8.53125zm469.332032 8.53125h-170.664063v-102.398437h179.199219v93.867187c0 4.710938-3.820313 8.53125-8.535156 8.53125zm0 0"/></svg>