<?xml version="1.0" encoding="UTF-8" standalone="no"?>
<svg
   xmlns:dc="http://purl.org/dc/elements/1.1/"
   xmlns:cc="http://creativecommons.org/ns#"
   xmlns:rdf="http://www.w3.org/1999/02/22-rdf-syntax-ns#"
   xmlns:svg="http://www.w3.org/2000/svg"
   xmlns="http://www.w3.org/2000/svg"
   xmlns:sodipodi="http://sodipodi.sourceforge.net/DTD/sodipodi-0.dtd"
   xmlns:inkscape="http://www.inkscape.org/namespaces/inkscape"
   width="1024"
   height="1024"
   viewBox="0 0 1024 1024"
   fill="#ffffff"
   version="1.1"
   id="svg4"
   sodipodi:docname="github-blue.svg"
   inkscape:version="1.0.2 (e86c870879, 2021-01-15)">
  <metadata
     id="metadata10">
    <rdf:RDF>
      <cc:Work
         rdf:about="">
        <dc:format>image/svg+xml</dc:format>
        <dc:type
           rdf:resource="http://purl.org/dc/dcmitype/StillImage" />
      </cc:Work>
    </rdf:RDF>
  </metadata>
  <defs
     id="defs8" />
  <sodipodi:namedview
     pagecolor="#ffffff"
     bordercolor="#666666"
     borderopacity="1"
     objecttolerance="10"
     gridtolerance="10"
     guidetolerance="10"
     inkscape:pageopacity="0"
     inkscape:pageshadow="2"
     inkscape:window-width="1920"
     inkscape:window-height="1017"
     id="namedview6"
     showgrid="false"
     inkscape:zoom="0.55242717"
     inkscape:cx="274.52255"
     inkscape:cy="571.87828"
     inkscape:window-x="-8"
     inkscape:window-y="-8"
     inkscape:window-maximized="1"
     inkscape:current-layer="svg4"
     inkscape:document-rotation="0" />
  <path
     fill-rule="evenodd"
     clip-rule="evenodd"
     d="M8 0C3.58 0 0 3.58 0 8C0 11.54 2.29 14.53 5.47 15.59C5.87 15.66 6.02 15.42 6.02 15.21C6.02 15.02 6.01 14.39 6.01 13.72C4 14.09 3.48 13.23 3.32 12.78C3.23 12.55 2.84 11.84 2.5 11.65C2.22 11.5 1.82 11.13 2.49 11.12C3.12 11.11 3.57 11.7 3.72 11.94C4.44 13.15 5.59 12.81 6.05 12.6C6.12 12.08 6.33 11.73 6.56 11.53C4.78 11.33 2.92 10.64 2.92 7.58C2.92 6.71 3.23 5.99 3.74 5.43C3.66 5.23 3.38 4.41 3.82 3.31C3.82 3.31 4.49 3.1 6.02 4.13C6.66 3.95 7.34 3.86 8.02 3.86C8.7 3.86 9.38 3.95 10.02 4.13C11.55 3.09 12.22 3.31 12.22 3.31C12.66 4.41 12.38 5.23 12.3 5.43C12.81 5.99 13.12 6.7 13.12 7.58C13.12 10.65 11.25 11.33 9.47 11.53C9.76 11.78 10.01 12.26 10.01 13.01C10.01 14.08 10 14.94 10 15.21C10 15.42 10.15 15.67 10.55 15.59C13.71 14.53 16 11.53 16 8C16 3.58 12.42 0 8 0Z"
     transform="scale(64)"
     fill="#1B1F23"
     id="path2"
     style="fill:#892ca0" />
  <path
     style="fill:#628eff;stroke-width:1.81019;fill-opacity:1"
     d="M 331.54364,989.99329 C 258.78209,962.55296 186.24681,913.28095 134.6486,856.24576 22.163723,731.90815 -22.54677,565.33946 12.887441,402.6252 33.693469,307.0837 80.936458,221.14265 151.27534,150.87988 230.93777,71.303643 325.65318,23.745875 440.15525,5.8297365 469.81722,1.1885259 555.36609,1.1729308 584.06562,5.8035031 664.8338,18.835172 730.48476,44.070019 794.49272,86.687249 c 31.96769,21.284461 48.5682,34.857711 77.116,63.053191 79.19885,78.22143 128.98648,176.58915 146.31868,289.08863 4.7282,30.68938 5.7554,104.39816 1.8543,133.04921 -21.28824,156.34705 -101.11558,284.01118 -231.16423,369.69016 -24.31501,16.01927 -70.58663,39.45871 -97.21884,49.24733 -25.98026,9.54903 -37.60932,8.48021 -46.18464,-4.24473 l -4.12728,-6.12446 v -83.74706 c 0,-89.1949 -0.70762,-98.54104 -9.17442,-121.17449 -4.80407,-12.84221 -10.92235,-23.17264 -18.40884,-31.0825 l -5.43257,-5.7398 8.81459,-1.1648 c 129.75419,-17.14646 197.78144,-74.69173 218.02072,-184.42701 5.32264,-28.85877 6.65819,-79.38645 2.72889,-103.24228 -5.40828,-32.83519 -17.51072,-61.202 -37.7669,-88.52148 l -10.57109,-14.25726 3.92285,-16.58208 c 7.95254,-33.61571 6.2311,-68.28808 -5.15568,-103.8437 l -5.09823,-15.91942 -17.08642,0.21496 c -14.42559,0.18149 -20.084,1.21982 -36.33552,6.66758 -21.71561,7.27938 -51.54428,21.82137 -73.07074,35.62321 -10.2426,6.56711 -15.80621,9.06165 -19.00703,8.52208 -2.48901,-0.41956 -14.70782,-2.87717 -27.1529,-5.46133 -36.21601,-7.52009 -54.42795,-9.23693 -97.75044,-9.21497 -43.03646,0.0217 -60.98646,1.73767 -96.84535,9.2576 -11.94727,2.50545 -23.77183,4.94069 -26.2768,5.41166 -3.33358,0.62676 -8.91402,-1.89275 -20.81722,-9.39876 -42.82784,-27.00667 -89.15957,-43.87642 -115.87291,-42.19021 l -9.00144,0.56818 -4.94519,14.74298 c -11.51978,34.34369 -13.52464,75.98701 -5.13831,106.72871 l 4.00207,14.67028 -9.07361,11.98791 c -17.78635,23.49901 -29.11412,46.63764 -36.76161,75.09097 -5.27003,19.60767 -6.60503,72.22389 -2.60358,102.61396 7.67272,58.27248 26.25086,100.07569 59.15478,133.10578 28.43644,28.54552 63.99177,46.95567 114.83822,59.46201 11.94181,2.93724 47.72294,9.26877 52.38026,9.26877 0.69455,0 -1.5973,3.4904 -5.093,7.75644 -8.62926,10.53088 -16.9116,27.73045 -20.45314,42.47413 -1.61458,6.72161 -3.17969,13.19674 -3.47801,14.38919 -0.82502,3.29761 -9.52097,7.19624 -25.22742,11.31016 -20.00707,5.24035 -46.40912,5.06213 -62.49522,-0.42183 -25.4634,-8.68082 -40.47461,-21.29979 -60.14024,-50.55615 -13.54374,-20.14888 -31.84012,-37.39887 -47.78443,-45.0516 -19.7334,-9.47137 -49.6406,-9.61745 -54.64486,-0.26692 -2.90038,5.41941 2.80223,14.416 13.85071,21.85125 24.0759,16.20222 43.28684,40.0073 58.44862,72.42614 4.03686,8.63156 8.71266,18.54482 10.39069,22.02944 5.12569,10.64413 25.31968,29.53986 38.34973,35.88426 30.21276,14.71073 69.67222,17.99765 119.92531,9.98959 l 6.78822,-1.08174 V 929.25 c 0,55.41891 -0.41738,57.77915 -11.40159,64.47661 -8.84825,5.3951 -19.44045,4.43282 -41.09402,-3.73332 z"
     id="path7" />
</svg>
