<?xml version="1.0" encoding="UTF-8" standalone="no"?>
<svg
   xmlns:dc="http://purl.org/dc/elements/1.1/"
   xmlns:cc="http://creativecommons.org/ns#"
   xmlns:rdf="http://www.w3.org/1999/02/22-rdf-syntax-ns#"
   xmlns:svg="http://www.w3.org/2000/svg"
   xmlns="http://www.w3.org/2000/svg"
   xmlns:sodipodi="http://sodipodi.sourceforge.net/DTD/sodipodi-0.dtd"
   xmlns:inkscape="http://www.inkscape.org/namespaces/inkscape"
   id="Capa_1"
   enable-background="new 0 0 512 512"
   height="512"
   viewBox="0 0 512 512"
   width="512"
   version="1.1"
   sodipodi:docname="idea.svg"
   inkscape:version="1.0.2 (e86c870879, 2021-01-15)">
  <metadata
     id="metadata39">
    <rdf:RDF>
      <cc:Work
         rdf:about="">
        <dc:format>image/svg+xml</dc:format>
        <dc:type
           rdf:resource="http://purl.org/dc/dcmitype/StillImage" />
      </cc:Work>
    </rdf:RDF>
  </metadata>
  <defs
     id="defs37" />
  <sodipodi:namedview
     pagecolor="#ffffff"
     bordercolor="#666666"
     borderopacity="1"
     objecttolerance="10"
     gridtolerance="10"
     guidetolerance="10"
     inkscape:pageopacity="0"
     inkscape:pageshadow="2"
     inkscape:window-width="1920"
     inkscape:window-height="1017"
     id="namedview35"
     showgrid="false"
     inkscape:zoom="1.6601562"
     inkscape:cx="256"
     inkscape:cy="256"
     inkscape:window-x="-8"
     inkscape:window-y="-8"
     inkscape:window-maximized="1"
     inkscape:current-layer="Capa_1" />
  <g
     id="g32"
     style="fill:#ffffff;fill-opacity:1">
    <path
       d="m175 385h162v56h-162z"
       id="path2"
       style="fill:#ffffff;fill-opacity:1" />
    <path
       d="m256 512c26.538 0 49.123-17.182 57.257-41h-114.514c8.134 23.818 30.719 41 57.257 41z"
       id="path4"
       style="fill:#ffffff;fill-opacity:1" />
    <path
       d="m254.945 90.004c-79.416.559-145.707 67.058-145.697 146.767.006 44.188 19.642 85.595 53.874 113.606 1.723 1.41 3.283 2.96 4.668 4.623h176.159c1.184-1.376 2.493-2.658 3.934-3.816 34.87-28.031 54.868-69.74 54.868-114.433 0-81.668-66.448-147.35-147.806-146.747zm68.25 132.847-58 45c-9.836 7.632-24.195.605-24.195-11.851v-14.377l-33.805 26.228c-6.536 5.072-15.961 3.898-21.046-2.656-5.079-6.545-3.889-15.968 2.656-21.046l58-45c9.836-7.632 24.195-.605 24.195 11.851v14.377l33.805-26.228c6.546-5.078 15.968-3.889 21.046 2.656 5.079 6.545 3.889 15.968-2.656 21.046z"
       id="path6"
       style="fill:#ffffff;fill-opacity:1" />
    <g
       id="g30"
       style="fill:#ffffff;fill-opacity:1">
      <path
         d="m256 0c-8.284 0-15 6.716-15 15v31c0 8.284 6.716 15 15 15s15-6.716 15-15v-31c0-8.284-6.716-15-15-15z"
         id="path8"
         style="fill:#ffffff;fill-opacity:1" />
      <path
         d="m109.275 69.563c-5.857-5.858-15.355-5.858-21.213 0s-5.858 15.355 0 21.213l21.92 21.92c5.857 5.858 15.355 5.859 21.213 0 5.858-5.858 5.858-15.355 0-21.213z"
         id="path10"
         style="fill:#ffffff;fill-opacity:1" />
      <path
         d="m79.5 237.5c0-8.284-6.716-15-15-15h-31c-8.284 0-15 6.716-15 15s6.716 15 15 15h31c8.284 0 15-6.716 15-15z"
         id="path12"
         style="fill:#ffffff;fill-opacity:1" />
      <path
         d="m478.5 222.5h-31c-8.284 0-15 6.716-15 15s6.716 15 15 15h31c8.284 0 15-6.716 15-15s-6.716-15-15-15z"
         id="path14"
         style="fill:#ffffff;fill-opacity:1" />
      <path
         d="m467.303 308.789-28.64-11.863c-7.653-3.171-16.428.464-19.599 8.118-3.17 7.654.464 16.428 8.118 19.599l28.64 11.863c7.683 3.183 16.44-.494 19.599-8.118 3.17-7.655-.464-16.429-8.118-19.599z"
         id="path16"
         style="fill:#ffffff;fill-opacity:1" />
      <path
         d="m184.711 26.197c-3.171-7.653-11.945-11.287-19.599-8.118-7.654 3.17-11.288 11.945-8.118 19.599l11.863 28.64c3.166 7.642 11.934 11.293 19.599 8.118 7.654-3.17 11.288-11.945 8.118-19.599z"
         id="path18"
         style="fill:#ffffff;fill-opacity:1" />
      <path
         d="m84.817 150.358-28.64-11.863c-7.654-3.171-16.428.464-19.599 8.118-3.17 7.654.464 16.428 8.118 19.599l28.64 11.863c7.683 3.183 16.44-.494 19.599-8.118 3.17-7.654-.464-16.429-8.118-19.599z"
         id="path20"
         style="fill:#ffffff;fill-opacity:1" />
      <path
         d="m423.938 69.563c-5.857-5.858-15.355-5.858-21.213 0l-21.92 21.92c-5.858 5.858-5.858 15.355 0 21.213 5.857 5.858 15.355 5.859 21.213 0l21.92-21.92c5.857-5.859 5.857-15.356 0-21.213z"
         id="path22"
         style="fill:#ffffff;fill-opacity:1" />
      <path
         d="m346.887 18.079c-7.654-3.169-16.428.464-19.599 8.118l-11.863 28.64c-3.17 7.654.464 16.428 8.118 19.599 7.684 3.182 16.44-.494 19.599-8.118l11.863-28.64c3.17-7.655-.464-16.429-8.118-19.599z"
         id="path24"
         style="fill:#ffffff;fill-opacity:1" />
      <path
         d="m73.337 296.926-28.64 11.863c-7.654 3.17-11.288 11.945-8.118 19.599 3.165 7.641 11.934 11.294 19.599 8.118l28.64-11.863c7.654-3.17 11.288-11.945 8.118-19.599-3.171-7.654-11.944-11.29-19.599-8.118z"
         id="path26"
         style="fill:#ffffff;fill-opacity:1" />
      <path
         d="m419.064 169.957c3.165 7.641 11.934 11.294 19.599 8.118l28.64-11.863c7.654-3.17 11.288-11.945 8.118-19.599s-11.944-11.289-19.599-8.118l-28.64 11.863c-7.653 3.17-11.287 11.945-8.118 19.599z"
         id="path28"
         style="fill:#ffffff;fill-opacity:1" />
    </g>
  </g>
</svg>
