<svg height="512pt" viewBox="0 -77 512 512" width="512pt" xmlns="http://www.w3.org/2000/svg"><path d="m503.46875 25.601562v153.597657h-494.9375v-153.597657c.03125-9.414062 7.65625-17.039062 17.070312-17.070312h460.796876c9.414062.03125 17.039062 7.65625 17.070312 17.070312zm0 0" fill="#cfd8dc"/><path d="m477.867188 25.601562.003906 153.597657h-469.34375l.003906-153.597657c-.207031-9.179687 7.035156-16.808593 16.214844-17.070312h436.90625c9.179687.261719 16.425781 7.890625 16.214844 17.070312zm0 0" fill="#f5f5f5"/><path d="m503.46875 179.199219v153.601562c-.03125 9.414063-7.65625 17.039063-17.070312 17.066407h-460.796876c-9.414062-.027344-17.039062-7.652344-17.070312-17.066407v-153.601562zm0 0" fill="#c52828"/><path d="m477.871094 179.199219-.003906 153.601562c.210937 9.179688-7.035157 16.804688-16.214844 17.066407h-436.90625c-9.179688-.261719-16.421875-7.886719-16.210938-17.066407l-.007812-153.601562zm0 0" fill="#f44335"/><path d="m486.398438 0h-460.796876c-14.140624 0-25.601562 11.460938-25.601562 25.601562v307.199219c0 14.136719 11.460938 25.597657 25.601562 25.597657h460.796876c14.140624 0 25.601562-11.460938 25.601562-25.597657v-307.199219c0-14.140624-11.460938-25.601562-25.601562-25.601562zm-460.796876 17.066406h460.796876c4.714843 0 8.535156 3.820313 8.535156 8.535156v145.066407h-477.867188v-145.066407c0-4.714843 3.820313-8.535156 8.535156-8.535156zm460.796876 324.265625h-460.796876c-4.714843 0-8.535156-3.820312-8.535156-8.53125v-145.066406h477.867188v145.066406c0 4.710938-3.820313 8.53125-8.535156 8.53125zm0 0"/></svg>