<?xml version="1.0" encoding="UTF-8" standalone="no"?>
<svg
   xmlns:dc="http://purl.org/dc/elements/1.1/"
   xmlns:cc="http://creativecommons.org/ns#"
   xmlns:rdf="http://www.w3.org/1999/02/22-rdf-syntax-ns#"
   xmlns:svg="http://www.w3.org/2000/svg"
   xmlns="http://www.w3.org/2000/svg"
   xmlns:sodipodi="http://sodipodi.sourceforge.net/DTD/sodipodi-0.dtd"
   xmlns:inkscape="http://www.inkscape.org/namespaces/inkscape"
   id="Layer_1"
   enable-background="new 0 0 511.973 511.973"
   height="512"
   viewBox="0 0 511.973 511.973"
   width="512"
   version="1.1"
   sodipodi:docname="uni.svg"
   inkscape:version="1.0.2 (e86c870879, 2021-01-15)">
  <metadata
     id="metadata13">
    <rdf:RDF>
      <cc:Work
         rdf:about="">
        <dc:format>image/svg+xml</dc:format>
        <dc:type
           rdf:resource="http://purl.org/dc/dcmitype/StillImage" />
      </cc:Work>
    </rdf:RDF>
  </metadata>
  <defs
     id="defs11" />
  <sodipodi:namedview
     pagecolor="#ffffff"
     bordercolor="#666666"
     borderopacity="1"
     objecttolerance="10"
     gridtolerance="10"
     guidetolerance="10"
     inkscape:pageopacity="0"
     inkscape:pageshadow="2"
     inkscape:window-width="1920"
     inkscape:window-height="1017"
     id="namedview9"
     showgrid="false"
     inkscape:zoom="1.6601562"
     inkscape:cx="256"
     inkscape:cy="256"
     inkscape:window-x="-8"
     inkscape:window-y="-8"
     inkscape:window-maximized="1"
     inkscape:current-layer="g6" />
  <g
     id="g6">
    <path
       d="m502.332 177.307c-1.414-.614-35.889-15.549-240-104-4.06-1.76-8.66-1.76-12.72 0l-240 104c-12.878 5.569-12.754 23.849 0 29.36 46.624 20.201 122.845 53.234 240 104 4.036 1.75 8.636 1.771 12.72 0 11.125-4.821 162.711-70.509 169.64-73.51v170.381c0 8.618 6.626 16.031 15.235 16.431 9.188.428 16.765-6.888 16.765-15.982v-176.633c0-2.514-1.862-4.637-4.356-4.958-30.031-3.87-171.66-22.15-205.694-26.539-9.844-1.23-15.978-11.198-13.39-20.07 2.03-7.493 9.144-12.266 16.35-11.77.718.042 228.73 29.466 228.567 29.445 4.26.548 7.762 3.276 9.444 6.975 1.176 2.586 4.17 3.771 6.742 2.565 4.305-2.018 8.039-4.674 9.737-10.685 2.186-7.789-1.764-15.864-9.04-19.01z"
       id="path2"
       style="fill:#628eff;fill-opacity:1" />
    <path
       d="m236.882 340.027-133.922-58.032c-3.302-1.431-6.988.99-6.988 4.588v57.404c0 53.83 70.28 96 160 96s160-42.17 160-96v-57.404c0-3.598-3.686-6.018-6.988-4.588l-133.932 58.032c-12.16 5.286-25.998 5.282-38.17 0z"
       id="path4"
       style="fill:#628eff;fill-opacity:1" />
  </g>
</svg>
